<svg y="0px" x="0px" viewBox="0 0 64.16 64.16" xmlns="http://www.w3.org/2000/svg" style="max-height: 500px" width="64.16" height="64.16"><title>a</title><g data-name="03 Big Movie"><path d="M24,16.605V22a2,2,0,0,0,2.632,1.9L32,22.108l5.368,1.79A2.019,2.019,0,0,0,38,24a2,2,0,0,0,2-2V16.605l3.664-5.5A2,2,0,0,0,42.632,8.1L37.284,6.32,33.664.891a2,2,0,0,0-3.328,0L26.716,6.32,21.368,8.1a2,2,0,0,0-1.032,3.006ZM28.632,9.9a2,2,0,0,0,1.032-.788L32,5.605l2.336,3.5a2,2,0,0,0,1.032.788l3.515,1.172-2.547,3.822A2,2,0,0,0,36,16v3.225L32.632,18.1a2.009,2.009,0,0,0-1.264,0L28,19.225V16a2,2,0,0,0-.336-1.109l-2.547-3.822Z"/><path d="M63.892,27.351a2,2,0,0,0-1.26-1.249L57.284,24.32l-3.62-5.429a2,2,0,0,0-3.328,0l-3.62,5.429L41.368,26.1a2,2,0,0,0-1.032,3.007L44,34.6V40a2,2,0,0,0,2.632,1.9L52,40.108l5.368,1.79A2.019,2.019,0,0,0,58,42a2,2,0,0,0,2-2V34.6l3.664-5.5A2,2,0,0,0,63.892,27.351Zm-7.556,5.54A2,2,0,0,0,56,34v3.225L52.632,36.1a2.009,2.009,0,0,0-1.264,0L48,37.225V34a2,2,0,0,0-.336-1.109l-2.547-3.822L48.632,27.9a2,2,0,0,0,1.032-.789L52,23.605l2.336,3.5a2,2,0,0,0,1.032.789l3.515,1.171Z"/><path d="M19.169,41.623A2,2,0,0,0,20,40V34.6l3.664-5.5A2,2,0,0,0,22.632,26.1L17.284,24.32l-3.62-5.429a2,2,0,0,0-3.328,0L6.716,24.32,1.368,26.1A2,2,0,0,0,.336,29.109L4,34.6V40a2,2,0,0,0,2.632,1.9L12,40.108l5.368,1.79A2.019,2.019,0,0,0,18,42,2,2,0,0,0,19.169,41.623Zm-2.833-8.732A2,2,0,0,0,16,34v3.225L12.632,36.1a2.009,2.009,0,0,0-1.264,0L8,37.225V34a2,2,0,0,0-.336-1.109L5.117,29.069,8.632,27.9a2,2,0,0,0,1.032-.789L12,23.605l2.336,3.5a2,2,0,0,0,1.032.789l3.515,1.171Z"/><path d="M45.231,46.424a2,2,0,0,0-1.716-.364L38,47.439V46a2,2,0,0,0-2-2H20a2,2,0,0,0-2,2V62a2,2,0,0,0,2,2H36a2,2,0,0,0,2-2V60.561l5.515,1.379A2,2,0,0,0,46,60V48A2,2,0,0,0,45.231,46.424ZM34,60H22V48H34V60Zm8-2.561-4-1V51.561l4-1Z"/><path d="M28.59,50.59a2,2,0,1,0,2.82,0A2.048,2.048,0,0,0,28.59,50.59Z"/></g><text font-family="'Helvetica Neue', Helvetica, Arial-Unicode, Arial, Sans-serif" font-weight="bold" font-size="5px" fill="#000000" y="79" x="0">Created by Berkah Icon</text><text font-family="'Helvetica Neue', Helvetica, Arial-Unicode, Arial, Sans-serif" font-weight="bold" font-size="5px" fill="#000000" y="84" x="0">from the Noun Project</text></svg>